<svg width="64" height="64" viewBox="0 0 64 64" fill="none" xmlns="http://www.w3.org/2000/svg">
  <rect width="64" height="64" rx="8" fill="#121212"/>
  <path d="M32 12L44 19V36L32 43L20 36V19L32 12Z" fill="#0078FF" stroke="#00FFF9" stroke-width="2"/>
  <path d="M32 24L38 27.5V34.5L32 38L26 34.5V27.5L32 24Z" fill="#121212"/>
  <path d="M32 12V24M44 19V27.5M44 36V34.5M32 43V38M20 36V34.5M20 19V27.5" stroke="#FF00C1" stroke-width="2"/>
  <circle cx="32" cy="12" r="2" fill="#00FFF9"/>
  <circle cx="44" cy="19" r="2" fill="#00FFF9"/>
  <circle cx="44" cy="36" r="2" fill="#00FFF9"/>
  <circle cx="32" cy="43" r="2" fill="#00FFF9"/>
  <circle cx="20" cy="36" r="2" fill="#00FFF9"/>
  <circle cx="20" cy="19" r="2" fill="#00FFF9"/>
</svg>